<svg width="242" height="302" viewBox="0 0 242 302" fill="none" xmlns="http://www.w3.org/2000/svg">
<path d="M121.003 294.782C-34.7393 234.03 13.8301 26.7781 13.8301 26.7781C41.9527 11.9633 105.696 6.72794 121.003 6.72794C136.31 6.72794 200.054 12.0524 228.176 26.7781C228.154 26.7781 276.679 234.008 121.003 294.782Z" fill="white"/>
<path d="M234.651 25.2632L233.961 22.3002L231.269 20.8744C201.522 5.27987 135.954 0 121.003 0C106.052 0 40.462 5.23532 10.7152 20.8967L8.02311 22.278L7.33339 25.2409C-0.34856 62.6083 -2.00855 100.966 2.41638 138.859C6.86617 174.303 17.0562 205.269 32.9197 230.844C52.9437 263.036 81.7115 286.65 118.6 301.042L121.025 302L123.451 301.042C160.339 286.65 189.152 263.036 209.109 230.844C224.972 205.269 235.229 174.325 239.59 138.859C244.01 100.972 242.343 62.6215 234.651 25.2632ZM120.981 294.827C-34.7616 234.074 13.8078 26.8227 13.8078 26.8227C41.9305 12.0078 105.674 6.7725 120.981 6.7725C136.288 6.7725 200.031 12.0747 228.154 26.8227C228.154 26.7781 276.657 234.03 120.981 294.782V294.827Z" fill="#005596"/>
<path d="M23.4639 179.493C30.2648 203.016 41.965 224.83 57.7939 243.498L44.9118 172.61C35.456 175.283 28.0249 177.867 23.4639 179.56V179.493Z" fill="#005596"/>
<path d="M89.2762 123.153L110.101 14.9708C88.5391 16.4663 67.1153 19.5415 46.002 24.1716L63.4229 127.096C72.1668 125.425 80.8216 124.088 89.1649 123.153H89.2762ZM83.6694 64.7175C83.6694 67.4131 84.2257 69.6855 84.8931 69.9751C83.576 70.8663 82.3061 71.8255 81.0886 72.8489C80.2431 73.6955 76.5053 78.2179 76.5053 78.2179C76.5053 78.2179 72.7675 73.7623 71.922 72.8489C70.6992 71.8156 69.4217 70.8488 68.0952 69.9528C68.7627 69.6632 69.3189 67.4131 69.3189 64.6952C69.3189 61.4203 67.4277 58.4796 64.6466 58.4796C60.6196 58.4796 60.0633 61.2421 60.0633 61.2421C60.0633 61.2421 56.3478 57.7445 56.3478 54.3582C56.3478 46.6723 60.4861 47.207 62.266 47.207C66.382 47.207 71.9888 53.623 71.9888 53.623C71.3658 52.2195 70.2978 49.7244 69.9864 48.9447C69.8529 48.6328 69.6971 48.2318 69.5191 47.8085C68.5952 45.5498 68.524 43.0315 69.3189 40.7241C70.2756 37.7611 72.3225 36.4913 73.9912 34.4194C75.6598 32.3476 76.483 31.501 76.483 31.501C76.483 31.501 77.1728 32.2139 78.9527 34.4194C80.7326 36.625 82.6682 37.7611 83.6249 40.7241C84.4615 43.0338 84.422 45.5707 83.5137 47.8531C83.358 48.2986 83.18 48.6773 83.0465 48.9892C82.735 49.769 81.667 52.2641 81.0441 53.6676C81.0441 53.6676 86.6508 47.2515 90.7668 47.2515C92.5468 47.2515 96.6851 46.7392 96.6851 54.4028C96.6851 57.789 92.9695 61.2867 92.9695 61.2867C92.9695 61.2867 92.4355 58.5242 88.3862 58.5242C85.6051 58.5019 83.6694 61.4203 83.6694 64.7175Z" fill="#005596"/>
<path d="M40.2173 145.141C44.0886 144.116 48.0044 143.158 51.809 142.289L52.8102 142.067L57.7939 140.975H58.0387L59.3069 140.708L65.5143 139.46H65.8036C72.9232 138.101 79.9539 136.987 86.7175 136.141L86.8955 135.205L88.5642 126.517C80.5323 127.452 72.189 128.744 63.7567 130.348C55.3243 131.952 46.6472 133.957 38.2594 136.185C30.361 138.302 22.6852 140.641 15.5655 143.025H15.432C15.699 144.851 16.1662 148.193 16.8782 152.092C24.0868 149.686 32.0297 147.324 39.8613 145.252L40.2173 145.141Z" fill="#005596"/>
<path d="M70.0976 166.617L75.1481 196.87L81.2666 164.701C77.6845 165.236 74.0357 165.859 70.1421 166.617H70.0976Z" fill="#005596"/>
<path d="M48.0712 156.302H48.3382L54.1229 154.787H54.5234C56.5703 154.297 58.6394 153.807 60.6418 153.361H61.02C63.2449 152.849 65.4698 152.404 67.5167 151.98C73.2125 150.822 78.8192 149.752 84.1812 149.084H84.3147L86.1168 139.616C79.5756 140.463 72.7675 141.554 66.0928 142.869C63.8679 143.27 61.7543 143.715 59.4181 144.205H59.0399L52.9882 145.542H52.6322C48.6051 146.478 44.5781 147.458 40.6845 148.505C33.2311 150.465 25.711 152.715 17.7014 155.411C18.0129 157.037 18.3466 158.842 18.7248 160.49L19.0141 161.76C19.2588 162.874 19.5258 163.988 19.7928 165.124C26.8234 162.585 34.6328 160.112 42.3977 157.906L48.0712 156.302Z" fill="#005596"/>
<path d="M61.8433 156.258L61.109 156.414C55.0128 157.795 48.8721 159.332 42.8649 161.047C35.1 163.275 27.5577 165.659 20.4158 168.221C21.0832 170.939 21.8249 173.649 22.6406 176.352L22.8854 176.219C42.0328 169.255 61.8408 164.268 82.0008 161.337L83.6694 152.181C78.4632 152.96 73.079 153.896 67.6502 155.01L61.8433 156.258Z" fill="#005596"/>
<path d="M37.7477 132.977L19.637 33.2387H19.5036C12.3633 68.2783 10.8611 104.235 15.0538 139.75C22.2624 137.299 29.8716 135.004 37.6587 132.933L37.7477 132.977Z" fill="#005596"/>
<path d="M127.055 121.37L121.003 91.05L114.996 121.37C116.932 121.37 118.934 121.37 120.914 121.37C122.894 121.37 124.986 121.37 127.055 121.37Z" fill="#005596"/>
<path d="M129.725 133.98C129.435 132.598 128.056 126.026 127.722 124.623C125.631 124.623 123.406 124.623 121.048 124.623C118.689 124.623 116.598 124.623 114.373 124.623C114.061 126.026 112.682 132.598 112.393 133.98C115.53 133.98 118.378 133.824 121.092 133.824C123.806 133.824 126.565 133.868 129.725 133.98Z" fill="#005596"/>
<path d="M121.048 146.099C124.363 146.099 127.9 146.099 132.172 146.388L130.392 137.21H130.17C126.677 136.965 123.717 136.965 121.048 136.965C118.378 136.965 115.374 136.965 111.881 137.165H111.703L109.879 146.366C114.239 146.188 117.777 146.099 121.048 146.099Z" fill="#005596"/>
<path d="M134.619 158.842L132.795 149.619H132.617C128.167 149.396 124.474 149.285 121.003 149.285C117.532 149.285 113.772 149.285 109.278 149.619L107.454 158.82C112.371 158.552 116.776 158.441 120.914 158.441C125.052 158.441 129.702 158.597 134.619 158.842Z" fill="#005596"/>
<path d="M135.176 162.072C130.147 161.783 125.52 161.649 121.048 161.649C116.576 161.649 111.97 161.783 106.92 162.072L85.5161 268.405C96.5868 276.096 108.538 282.431 121.114 287.274C133.693 282.418 145.645 276.068 156.713 268.36L135.242 162.072H135.176ZM113.416 257.867C109.612 257.867 100.067 254.169 99.3549 239.332C98.7987 228.483 101.958 225.609 101.958 225.609L107.787 236.258C107.787 251.54 118.8 251.852 118.8 251.852C118.907 252.617 118.846 253.396 118.623 254.136C118.4 254.875 118.019 255.557 117.507 256.135C116.996 256.713 116.365 257.173 115.659 257.484C114.953 257.794 114.187 257.948 113.416 257.934V257.867ZM122.316 262.189H119.512V246.394C118.066 245.77 114.84 244.166 114.929 238.218C115.081 233.125 114.489 228.036 113.172 223.114C112.237 219.772 106.497 216.252 106.497 216.252C112.237 209.858 117.265 218.48 117.043 217.455C116.937 214.975 117.409 212.503 118.422 210.237C119.096 208.839 119.916 207.518 120.87 206.294C121.831 207.516 122.659 208.838 123.339 210.237C124.354 212.503 124.826 214.974 124.719 217.455C124.496 218.524 129.524 209.858 135.265 216.252C135.265 216.252 129.613 219.772 128.59 223.114C127.276 228.037 126.684 233.125 126.832 238.218C126.832 244.567 123.228 245.949 121.982 246.506L122.316 262.189ZM142.607 239.443C141.85 254.281 132.328 257.979 128.523 257.979C127.761 257.991 127.006 257.84 126.307 257.534C125.609 257.228 124.985 256.776 124.476 256.208C123.968 255.64 123.587 254.969 123.36 254.24C123.133 253.512 123.066 252.743 123.161 251.986C123.161 251.986 134.174 251.674 134.174 236.391L140.004 225.743C140.004 225.743 143.163 228.572 142.607 239.443Z" fill="#005596"/>
<path d="M201.589 148.46C197.651 147.413 193.646 146.433 189.708 145.497L189.196 145.386L183.701 144.161L182.588 143.916L176.269 142.646C169.439 141.331 162.631 140.24 156.045 139.393H155.889L157.714 148.861H158.048C163.365 149.641 168.705 150.554 174.356 151.691H174.69C183.078 153.384 191.599 155.456 200.031 157.839C207.574 160.067 215.027 162.295 222.147 164.901L222.547 165.057C223.304 161.775 223.993 158.5 224.616 155.233L224.238 155.121C216.94 152.805 209.309 150.532 201.589 148.46Z" fill="#005596"/>
<path d="M199.364 161.114L193.601 159.532H193.49L187.416 157.973C182.966 156.904 178.628 155.923 174.223 155.01C168.905 153.941 163.632 153.005 158.537 152.248H158.404L160.317 161.471C163.988 162.005 167.815 162.674 172.265 163.52H172.665L174.623 163.921L176.314 164.255L177.404 164.478C179.429 164.901 181.52 165.369 183.812 165.882L185.525 166.283C187.883 166.84 189.975 167.352 191.844 167.842L192.533 168.02L196.983 169.246L198.073 169.558C205.416 171.629 212.468 174.013 219.076 176.352L219.544 176.531C220.33 173.798 221.071 171.058 221.769 168.31L221.279 168.132C214.204 165.57 206.839 163.231 199.364 161.114Z" fill="#005596"/>
<path d="M160.984 164.745L167.103 196.87L172.131 166.684C168.215 165.926 164.611 165.302 160.984 164.745Z" fill="#005596"/>
<path d="M197.295 172.61L184.457 243.364C200.205 224.746 211.857 203.013 218.654 179.583C211.868 177.065 204.681 174.837 197.295 172.61Z" fill="#005596"/>
<path d="M227.019 139.95C231.23 104.392 229.728 68.388 222.569 33.3055L204.481 133.111C212.246 135.205 219.811 137.5 227.019 139.95Z" fill="#005596"/>
<path d="M178.806 127.185L196.249 24.1939C175.129 19.5553 153.698 16.4727 132.128 14.9708L152.975 123.197C161.407 124.155 170.084 125.514 178.806 127.185ZM150.95 59.1257L154.71 56.8979L145.432 51.5512L146.968 51.0165L143.297 44.3331L150.883 44.1995L150.572 42.5955L160.028 48.0536V37.1374L161.251 38.2067L164.989 31.7015L168.727 38.2067L169.951 37.1374V48.0536L179.34 42.6623L179.028 44.2663L186.615 44.4L182.944 51.0834L184.479 51.618L175.201 56.9647L178.962 59.1925L177.426 59.7272L181.097 66.4106L173.511 66.5665L173.822 68.1705L166.658 64.0268V78.0842H163.254V63.9155L156.09 68.0592L156.401 66.4551L148.814 66.2992L152.485 59.6158L150.95 59.1257Z" fill="#005596"/>
<path d="M203.814 136.23L198.251 134.737H197.673C191.265 133.133 184.769 131.685 178.339 130.437C169.906 128.722 161.541 127.43 153.576 126.494C153.776 127.92 154.977 134.648 155.222 136.074C162.075 136.943 169.15 138.057 176.314 139.415H176.648C178.628 139.794 180.697 140.217 182.922 140.685L184.079 140.93L189.864 142.222H190.042L195.849 143.604L201.655 145.096H202.39C210.155 147.168 217.697 149.418 224.817 151.78H225.084C225.618 148.75 226.085 145.742 226.485 142.869H226.196C219.099 140.618 211.512 138.324 203.814 136.23Z" fill="#005596"/>
<path d="M127.033 121.37C124.963 121.37 122.961 121.37 120.892 121.37C118.823 121.37 116.909 121.37 114.974 121.37L114.306 124.578C116.42 124.578 118.756 124.578 120.981 124.578C123.206 124.578 125.431 124.578 127.656 124.578C127.656 124.578 127.055 121.37 127.033 121.37Z" fill="#FFCF01"/>
<path d="M89.1427 123.153C80.7993 124.088 72.1445 125.38 63.4007 127.096C54.8348 128.744 46.2023 130.727 37.7254 132.977C29.9383 135.049 22.3292 137.433 15.1205 139.794C15.1205 139.794 15.1205 139.972 15.1205 140.084C15.2318 140.953 15.343 141.821 15.4543 142.69V142.958H15.5877C22.7519 140.529 30.3833 138.212 38.2816 136.118C46.6917 133.891 55.2576 131.908 63.7789 130.281C72.3002 128.655 80.5546 127.385 88.5865 126.45L89.2317 123.153H89.1427Z" fill="#FFCF01"/>
<path d="M15.165 140.084L15.521 142.668C15.3653 141.821 15.2763 140.953 15.165 140.084Z" fill="#FFCF01"/>
<path d="M204.481 133.111C196.004 130.883 187.372 128.833 178.828 127.185C170.107 125.492 161.429 124.155 153.086 123.219V123.509L153.598 126.227C153.586 126.323 153.586 126.42 153.598 126.517C161.585 127.452 169.929 128.744 178.339 130.393C184.769 131.64 191.265 133.089 197.673 134.693L198.251 134.848L203.747 136.274C211.512 138.368 219.099 140.73 226.285 143.091H226.574C226.574 142.668 226.73 142.222 226.775 141.799C226.819 141.376 226.908 140.708 226.975 140.173V139.906C219.811 137.5 212.246 135.205 204.481 133.111Z" fill="#FFCF01"/>
<path d="M81.9118 161.337C61.7518 164.268 41.9438 169.255 22.7964 176.219L22.5517 176.352L23.4861 179.493C27.9359 177.8 35.456 175.216 44.9341 172.543C53.1439 170.315 61.6208 168.243 70.0976 166.639C74.0134 165.904 77.6845 165.28 81.2221 164.723L81.9563 161.359L81.9118 161.337Z" fill="#FFCF01"/>
<path d="M219.121 176.33C212.446 173.902 205.438 171.607 198.118 169.535L197.028 169.223L192.578 167.998L191.888 167.82C189.997 167.33 187.928 166.817 185.57 166.26L183.79 165.926C181.565 165.392 179.34 164.946 177.382 164.523L176.292 164.3L174.601 163.966L172.665 163.52H172.398C167.948 162.674 164.122 162.005 160.45 161.471V161.76L160.984 164.523V164.812C164.611 165.369 168.26 165.993 172.109 166.728C180.564 168.355 189.04 170.36 197.25 172.676C204.637 174.771 211.823 177.132 218.609 179.627V179.36C218.876 178.513 219.121 177.667 219.366 176.798V176.531L219.121 176.33Z" fill="#FFCF01"/>
<path d="M218.765 179.293L219.521 176.731C219.277 177.578 219.01 178.446 218.765 179.293Z" fill="#FFCF01"/>
<path d="M134.619 158.842C129.702 158.574 125.208 158.463 120.914 158.463C116.62 158.463 112.371 158.597 107.454 158.842L106.853 162.072C111.903 161.783 116.531 161.649 120.981 161.649C125.431 161.649 130.081 161.783 135.109 162.072L134.619 158.842Z" fill="#FFCF01"/>
<path d="M134.664 159.131L135.153 161.604L134.686 159.131H134.664Z" fill="#FFCF01"/>
<path d="M129.725 133.98C126.565 133.98 123.74 133.824 121.048 133.824C118.356 133.824 115.485 133.824 112.348 133.98L111.703 137.21H111.881C115.374 137.076 118.289 137.009 121.048 137.009C123.806 137.009 126.677 137.009 130.17 137.188H130.392L129.725 133.98Z" fill="#FFCF01"/>
<path d="M86.6953 136.051C80.0206 136.898 72.901 138.012 65.7813 139.371H65.4921L59.1956 140.641L57.9274 140.908H57.6827L52.6989 142L51.6977 142.222C47.8709 143.091 43.9774 144.049 40.1061 145.074H39.8391C32.0074 147.146 24.0423 149.53 16.8559 151.913V152.203L17.3232 154.899V155.233C25.3328 152.559 32.8974 150.287 40.3063 148.327C44.1999 147.302 48.2269 146.299 52.254 145.364H52.6099L58.6616 144.027H59.0399C61.2648 143.537 63.4897 143.091 65.7146 142.69C72.5227 141.398 79.2864 140.284 85.7386 139.438V139.148L86.2726 136.386V136.096L86.6953 136.051Z" fill="#FFCF01"/>
<path d="M16.9227 152.337C17.0784 153.206 17.2119 154.052 17.4122 155.01L16.9227 152.314V152.337Z" fill="#FFCF01"/>
<path d="M224.883 152.092C217.764 149.708 210.221 147.458 202.456 145.408H201.722L195.915 143.916L190.108 142.534H189.93L184.146 141.242L182.989 140.997C180.764 140.529 178.695 140.106 176.714 139.727H176.381C169.239 138.368 162.141 137.232 155.289 136.386V136.675L155.8 139.193V139.482H155.956C162.631 140.329 169.306 141.443 176.18 142.735L182.499 144.005L183.612 144.25L189.107 145.475L189.619 145.586C193.557 146.5 197.562 147.502 201.5 148.549C209.265 150.621 216.896 152.894 224.171 155.233L224.55 155.344V155.077C224.705 154.208 224.861 153.339 225.017 152.448V152.181L224.883 152.092Z" fill="#FFCF01"/>
<path d="M224.683 155.077L225.128 152.448C224.972 153.317 224.817 154.208 224.661 155.077H224.683Z" fill="#FFCF01"/>
<path d="M132.172 146.411C127.9 146.21 124.363 146.121 121.048 146.121C117.733 146.121 114.239 146.121 109.923 146.411V146.7L109.389 149.374V149.663C113.839 149.441 117.599 149.329 121.114 149.329C124.63 149.329 128.279 149.329 132.728 149.663H132.862L132.172 146.411Z" fill="#FFCF01"/>
<path d="M84.2257 148.861C78.8637 149.641 73.2569 150.599 67.5612 151.757C65.4698 152.181 63.3562 152.626 61.0645 153.139H60.6863C58.6617 153.584 56.6148 154.074 54.5679 154.564H54.1674L48.2714 156.057H48.0044L42.2642 157.617C34.5216 159.844 26.69 162.295 19.6593 164.835C19.8595 165.726 20.0598 166.639 20.2823 167.53V167.976C27.4242 165.392 34.9888 162.986 42.7314 160.802C48.7386 159.109 54.8793 157.55 60.9755 156.168L67.5835 154.765C73.0345 153.651 78.4187 152.715 83.6027 151.936L84.2257 148.616V148.861Z" fill="#FFCF01"/>
<path d="M222.102 165.035C214.983 162.495 207.529 160.112 199.987 157.973C191.554 155.589 183.033 153.517 174.645 151.824H174.312C168.66 150.688 163.321 149.752 158.003 148.995H157.669V149.285L158.203 152.025V152.314H158.337C163.432 153.072 168.705 154.008 174.022 155.077C178.472 155.968 182.922 156.97 187.216 158.04L193.29 159.599H193.401L199.164 161.181C206.595 163.297 213.959 165.637 221.057 168.199L221.546 168.377V168.109C221.746 167.263 221.946 166.394 222.147 165.548V165.28L222.102 165.035Z" fill="#FFCF01"/>
<path d="M92.9695 61.2198C92.9695 61.2198 96.6851 57.7222 96.6851 54.3359C96.6851 46.65 92.569 47.1847 90.7668 47.1847C86.6508 47.1847 81.0441 53.6008 81.0441 53.6008C81.667 52.1973 82.735 49.7021 83.0465 48.9224C83.18 48.6105 83.3357 48.2095 83.5137 47.7862C84.414 45.5357 84.4694 43.0347 83.6694 40.7464C82.7127 37.7834 80.6658 36.5136 78.9972 34.4417C77.3285 32.3699 76.5275 31.5233 76.5275 31.5233C76.5275 31.5233 75.8823 32.2585 74.0802 34.4863C72.278 36.7141 70.3646 37.828 69.4079 40.7909C68.6186 43.0916 68.6898 45.6009 69.6081 47.8531C69.7639 48.2986 69.9419 48.6773 70.0754 48.9892C70.3868 49.769 71.4548 52.2641 72.0778 53.6676C72.0778 53.6676 66.471 47.2515 62.355 47.2515C60.5751 47.2515 56.4368 46.7392 56.4368 54.4028C56.4368 57.789 60.1523 61.2867 60.1523 61.2867C60.1523 61.2867 60.6863 58.5242 64.7356 58.5242C67.5167 58.5242 69.4079 61.4426 69.4079 64.7398C69.4079 67.4354 68.8517 69.7077 68.1842 69.9973C69.495 70.8875 70.7575 71.8468 71.9665 72.8712C72.812 73.7178 76.5498 78.2402 76.5498 78.2402C76.5498 78.2402 80.2876 73.7846 81.1331 72.8712C82.3506 71.8478 83.6205 70.8885 84.9376 69.9973C84.2702 69.7077 83.7139 67.4577 83.7139 64.7398C83.7139 61.4649 85.6051 58.5242 88.3862 58.5242C92.4133 58.5019 92.9695 61.2198 92.9695 61.2198Z" fill="#FFCF01"/>
<path d="M123.184 251.941C123.088 252.698 123.156 253.467 123.382 254.196C123.609 254.924 123.99 255.595 124.498 256.163C125.007 256.732 125.631 257.184 126.33 257.489C127.028 257.795 127.784 257.947 128.546 257.934C132.35 257.934 141.895 254.236 142.629 239.399C143.185 228.55 140.026 225.676 140.026 225.676L134.197 236.325C134.197 251.63 123.184 251.941 123.184 251.941Z" fill="#FFCF01"/>
<path d="M107.765 236.347L101.936 225.698C101.936 225.698 98.7987 228.572 99.2437 239.443C100 254.281 109.523 257.979 113.305 257.979C114.066 257.988 114.82 257.833 115.516 257.527C116.213 257.22 116.836 256.768 117.343 256.2C117.851 255.633 118.232 254.963 118.46 254.236C118.688 253.51 118.759 252.742 118.667 251.986C118.667 251.986 107.765 251.63 107.765 236.347Z" fill="#FFCF01"/>
<path d="M127.055 238.285C126.906 233.192 127.498 228.103 128.813 223.181C129.747 219.839 135.487 216.319 135.487 216.319C129.747 209.925 124.719 218.547 124.941 217.522C125.049 215.041 124.576 212.57 123.562 210.304C122.882 208.905 122.054 207.583 121.092 206.361C120.139 207.584 119.318 208.906 118.645 210.304C117.632 212.57 117.159 215.041 117.265 217.522C117.466 218.591 112.46 209.925 106.719 216.319C106.719 216.319 112.371 219.839 113.394 223.181C114.712 228.103 115.304 233.191 115.152 238.285C115.152 244.233 118.289 245.815 119.735 246.461V262.256H122.427V246.662C123.473 246.127 127.144 244.657 127.055 238.285Z" fill="#FFCF01"/>
<path d="M156.423 66.4551L156.112 68.0592L163.276 63.9155V77.9728H166.747V63.9155L173.911 68.0592L173.577 66.4551L181.186 66.2992L177.515 59.6604L179.051 59.1257L175.291 56.9647L184.568 51.5958L183.033 51.0834L186.704 44.4222L179.117 44.2663L179.429 42.6623L169.973 48.1204V37.2042L168.749 38.2735L165.012 31.7684L161.274 38.2735L160.028 37.2042V48.1204L150.594 42.6623L150.906 44.2663L143.319 44.4222L146.968 51.0834L145.432 51.5958L154.71 56.9647L150.95 59.1257L152.508 59.6604L148.837 66.2992L156.423 66.4551Z" fill="#FFCF01"/>
</svg>
